<mxfile host="app.diagrams.net" modified="2024-01-18T21:28:35.570Z" agent="Mozilla/5.0 (Windows NT 10.0; Win64; x64) AppleWebKit/537.36 (KHTML, like Gecko) Chrome/120.0.0.0 Safari/537.36" etag="aUSZoQGWjlYoDzJ1rUUO" version="22.1.21" type="device">
  <diagram name="Страница — 1" id="OYvA9eo5edqegS3Lmh7p">
    <mxGraphModel dx="1434" dy="892" grid="1" gridSize="10" guides="1" tooltips="1" connect="1" arrows="1" fold="1" page="1" pageScale="1" pageWidth="827" pageHeight="1169" background="#ffffff" math="0" shadow="0">
      <root>
        <mxCell id="0" />
        <mxCell id="1" parent="0" />
        <mxCell id="LU8rG-0jzyaB3u_yu2AV-8" style="edgeStyle=none;rounded=0;orthogonalLoop=1;jettySize=auto;html=1;exitX=1;exitY=0.5;exitDx=0;exitDy=0;entryX=0;entryY=0.5;entryDx=0;entryDy=0;" parent="1" source="LU8rG-0jzyaB3u_yu2AV-1" target="LU8rG-0jzyaB3u_yu2AV-7" edge="1">
          <mxGeometry relative="1" as="geometry" />
        </mxCell>
        <mxCell id="LU8rG-0jzyaB3u_yu2AV-15" value="PUT /order/process" style="edgeLabel;html=1;align=center;verticalAlign=middle;resizable=0;points=[];" parent="LU8rG-0jzyaB3u_yu2AV-8" vertex="1" connectable="0">
          <mxGeometry x="-0.044" y="4" relative="1" as="geometry">
            <mxPoint y="-6" as="offset" />
          </mxGeometry>
        </mxCell>
        <mxCell id="LU8rG-0jzyaB3u_yu2AV-11" style="edgeStyle=none;rounded=0;orthogonalLoop=1;jettySize=auto;html=1;exitX=0.5;exitY=1;exitDx=0;exitDy=0;entryX=0;entryY=0.5;entryDx=0;entryDy=0;" parent="1" source="LU8rG-0jzyaB3u_yu2AV-1" target="LU8rG-0jzyaB3u_yu2AV-4" edge="1">
          <mxGeometry relative="1" as="geometry" />
        </mxCell>
        <mxCell id="LU8rG-0jzyaB3u_yu2AV-23" value="PUT /order/cancel" style="edgeLabel;html=1;align=center;verticalAlign=middle;resizable=0;points=[];" parent="LU8rG-0jzyaB3u_yu2AV-11" vertex="1" connectable="0">
          <mxGeometry x="-0.0221" relative="1" as="geometry">
            <mxPoint x="-23" y="-24" as="offset" />
          </mxGeometry>
        </mxCell>
        <mxCell id="LU8rG-0jzyaB3u_yu2AV-1" value="NEW" style="ellipse;whiteSpace=wrap;html=1;aspect=fixed;" parent="1" vertex="1">
          <mxGeometry x="230" y="260" width="80" height="80" as="geometry" />
        </mxCell>
        <mxCell id="LU8rG-0jzyaB3u_yu2AV-4" value="CANCELED" style="ellipse;whiteSpace=wrap;html=1;aspect=fixed;" parent="1" vertex="1">
          <mxGeometry x="440" y="430" width="80" height="80" as="geometry" />
        </mxCell>
        <mxCell id="LU8rG-0jzyaB3u_yu2AV-6" value="COMPLETED" style="ellipse;whiteSpace=wrap;html=1;aspect=fixed;" parent="1" vertex="1">
          <mxGeometry x="640" y="260" width="80" height="80" as="geometry" />
        </mxCell>
        <mxCell id="LU8rG-0jzyaB3u_yu2AV-10" style="edgeStyle=none;rounded=0;orthogonalLoop=1;jettySize=auto;html=1;exitX=0.5;exitY=1;exitDx=0;exitDy=0;" parent="1" source="LU8rG-0jzyaB3u_yu2AV-7" target="LU8rG-0jzyaB3u_yu2AV-4" edge="1">
          <mxGeometry relative="1" as="geometry" />
        </mxCell>
        <mxCell id="LU8rG-0jzyaB3u_yu2AV-22" value="PUT /order/cancel" style="edgeLabel;html=1;align=center;verticalAlign=middle;resizable=0;points=[];" parent="LU8rG-0jzyaB3u_yu2AV-10" vertex="1" connectable="0">
          <mxGeometry x="-0.0794" y="2" relative="1" as="geometry">
            <mxPoint as="offset" />
          </mxGeometry>
        </mxCell>
        <mxCell id="LU8rG-0jzyaB3u_yu2AV-7" value="&lt;font style=&quot;font-size: 10px;&quot;&gt;IN_PROGRESS&lt;/font&gt;" style="ellipse;whiteSpace=wrap;html=1;aspect=fixed;" parent="1" vertex="1">
          <mxGeometry x="440" y="260" width="80" height="80" as="geometry" />
        </mxCell>
        <mxCell id="LU8rG-0jzyaB3u_yu2AV-9" style="edgeStyle=none;rounded=0;orthogonalLoop=1;jettySize=auto;html=1;exitX=1;exitY=0.5;exitDx=0;exitDy=0;entryX=0;entryY=0.5;entryDx=0;entryDy=0;" parent="1" source="LU8rG-0jzyaB3u_yu2AV-7" target="LU8rG-0jzyaB3u_yu2AV-6" edge="1">
          <mxGeometry relative="1" as="geometry" />
        </mxCell>
        <mxCell id="LU8rG-0jzyaB3u_yu2AV-19" value="internal process" style="edgeLabel;html=1;align=center;verticalAlign=middle;resizable=0;points=[];" parent="LU8rG-0jzyaB3u_yu2AV-9" vertex="1" connectable="0">
          <mxGeometry x="-0.0405" y="-1" relative="1" as="geometry">
            <mxPoint x="2" y="-11" as="offset" />
          </mxGeometry>
        </mxCell>
        <mxCell id="LU8rG-0jzyaB3u_yu2AV-17" style="edgeStyle=orthogonalEdgeStyle;rounded=0;orthogonalLoop=1;jettySize=auto;html=1;exitX=1;exitY=0.5;exitDx=0;exitDy=0;" parent="1" target="LU8rG-0jzyaB3u_yu2AV-1" edge="1">
          <mxGeometry relative="1" as="geometry">
            <mxPoint x="110" y="300" as="sourcePoint" />
          </mxGeometry>
        </mxCell>
        <mxCell id="LU8rG-0jzyaB3u_yu2AV-18" value="POST /order/place" style="edgeLabel;html=1;align=center;verticalAlign=middle;resizable=0;points=[];" parent="LU8rG-0jzyaB3u_yu2AV-17" vertex="1" connectable="0">
          <mxGeometry x="-0.2357" y="-2" relative="1" as="geometry">
            <mxPoint x="4" y="-12" as="offset" />
          </mxGeometry>
        </mxCell>
        <mxCell id="LU8rG-0jzyaB3u_yu2AV-20" style="edgeStyle=orthogonalEdgeStyle;rounded=0;orthogonalLoop=1;jettySize=auto;html=1;exitX=0;exitY=0;exitDx=0;exitDy=0;entryX=1;entryY=0;entryDx=0;entryDy=0;curved=1;" parent="1" source="LU8rG-0jzyaB3u_yu2AV-1" target="LU8rG-0jzyaB3u_yu2AV-1" edge="1">
          <mxGeometry relative="1" as="geometry">
            <Array as="points">
              <mxPoint x="242" y="200" />
              <mxPoint x="298" y="200" />
            </Array>
          </mxGeometry>
        </mxCell>
        <mxCell id="LU8rG-0jzyaB3u_yu2AV-21" value="PUT /order/adjust" style="edgeLabel;html=1;align=center;verticalAlign=middle;resizable=0;points=[];" parent="LU8rG-0jzyaB3u_yu2AV-20" vertex="1" connectable="0">
          <mxGeometry x="-0.0557" y="1" relative="1" as="geometry">
            <mxPoint x="6" y="-9" as="offset" />
          </mxGeometry>
        </mxCell>
      </root>
    </mxGraphModel>
  </diagram>
</mxfile>
